<?xml version="1.0" encoding="UTF-8"?>
<svg width="62px" height="56px" viewBox="0 0 62 56" version="1.1" xmlns="http://www.w3.org/2000/svg" xmlns:xlink="http://www.w3.org/1999/xlink">
    <title>logo/foofighters</title>
    <g id="Desktop" stroke="none" stroke-width="1" fill="none" fill-rule="evenodd">
        <g id="1366-home-01" transform="translate(-24.000000, -24.000000)" fill="#E0E0E0">
            <path d="M61.622225,65.1034331 C60.8801595,65.1034331 60.0940156,65.1029501 59.3083561,65.1034331 C58.4267899,65.1039161 57.5975365,64.8827051 56.8230176,64.4803716 C55.5558874,63.8220516 55.0395415,62.6855682 54.8302906,61.2428669 C55.1073543,61.2196832 55.3543866,61.1824928 55.6009345,61.1815268 C57.7365527,61.1737989 59.8716865,61.1742819 62.0068204,61.1694519 C62.7193389,61.1684859 62.7144952,61.163173 62.9251992,60.4724925 C64.4059397,55.6242048 67.259889,51.7307951 71.2303273,48.6174197 C72.8001932,47.3867525 74.4897002,46.3449358 76.2760826,45.4562279 C76.420427,45.3847449 76.5604119,45.304085 76.7023344,45.227772 C76.6931312,45.1756088 76.6844124,45.1234455 76.6752093,45.0712822 C74.4775908,45.0466495 72.2799723,45.0070441 70.0823538,45.0007652 C67.8934541,44.9949692 65.7331327,45.234051 63.625124,45.8503505 C60.8946908,46.6492216 58.7382443,48.2097732 57.1892067,50.6063865 C56.1119522,52.2722307 55.4391525,54.0993947 54.8811502,55.9845179 C54.6922432,56.6211032 54.4481172,57.2567225 54.1221315,57.8324506 C53.5263477,58.8863422 52.6065158,58.9641041 51.7782311,58.0869881 C50.9286338,57.1866884 50.5062571,56.0695247 50.2243497,54.8992317 C49.7501446,52.9295847 49.7864729,50.9695975 50.4515225,49.0385899 C50.4975383,48.9033518 50.5256322,48.7613517 50.5527573,48.6208006 C50.5605073,48.5797462 50.5362885,48.5319298 50.5033508,48.377372 C49.5806126,48.3459774 48.6288118,48.3145828 47.6774954,48.2812563 C47.3602284,48.2706304 47.3229314,48.5029502 47.2236341,48.7333381 C46.6971163,49.9615903 46.2437394,51.2357268 45.5820804,52.3891151 C43.5786971,55.8816403 40.9824364,58.8650905 37.5554691,61.0511186 C35.52157,62.3494048 33.3132952,63.1651806 30.8516913,63.0840377 C29.1796219,63.0294595 27.6543187,62.4967178 26.2951568,61.529282 C25.7313419,61.1279145 25.2014335,60.6729347 24.6884783,60.2063631 C24.2709453,59.8267303 24.0093817,59.339873 24,58.756417 C23.9885535,58.0353078 24.5460714,57.5267158 25.2610119,57.6286274 C25.540013,57.6687158 25.8451705,57.7401989 26.0733121,57.8937908 C27.4043801,58.7916755 28.7964796,58.6221448 30.2069855,58.170546 C32.1871187,57.5354097 33.739547,56.3115044 35.0216929,54.6997555 C36.3842455,52.9856119 37.2377177,51.0246587 37.9071268,48.9680729 C37.9720333,48.7676306 38.0035178,48.5560795 38.0669712,48.2783583 C37.5506253,48.2783583 37.0754515,48.2889842 36.6012464,48.2764263 C35.6169923,48.2498617 34.645332,48.1295963 33.7041875,47.8243445 C32.2060094,47.3389362 31.5424129,46.1754051 31.2120678,44.7496086 C31.1471613,44.4689894 31.2479117,44.27869 31.5705068,44.2719281 C31.7623201,44.2680642 31.9541334,44.2656492 32.1459467,44.2651662 C34.2336116,44.2627513 36.3207921,44.2622683 38.4079726,44.2564723 C39.0715691,44.2545404 39.0759285,44.2497104 39.2493355,43.6416217 C40.4084496,39.5801303 42.6448183,36.1924147 45.6939715,33.2963863 C47.8339492,31.2634671 50.2844124,29.6971195 52.9029545,28.3684047 C52.9630173,28.3379761 53.0182363,28.2978877 53.2313621,28.1655475 C50.5144915,28.131738 47.9579497,28.0100236 45.4081891,28.0969624 C43.3578212,28.1669965 41.3055159,28.419119 39.3447577,29.1223574 C36.4336519,30.1670721 34.3014243,32.07876 32.8681528,34.8047747 C32.1062277,36.2537548 31.59521,37.7896738 31.1113174,39.3429806 C30.9277385,39.9307835 30.6840968,40.5142395 30.3745799,41.0460153 C29.8393433,41.9656347 29.0386682,42.1037708 28.3111339,41.3367773 C27.7788036,40.775539 27.2779577,40.1056271 27.007191,39.3917629 C25.7962485,36.2044895 25.9812805,33.0481277 27.6330061,30.0612966 C29.34431,26.9667579 31.9410552,24.9348047 35.4750698,24.3334779 C36.8787944,24.0943962 38.3411286,24.1571853 39.776822,24.1518724 C41.694955,24.1451105 43.6130879,24.2146615 45.5317052,24.2349473 C47.0637897,24.251369 48.5963586,24.2586139 50.128443,24.2412262 C52.8617825,24.2103146 55.5951219,24.1634642 58.3274926,24.109852 C58.9256982,24.0982601 59.5258413,23.9712329 60.1187188,24.0060084 C60.5822676,24.033056 61.082629,24.1431785 61.4836932,24.3648725 C62.5943697,24.9777911 62.6118073,26.3644651 61.5500529,27.0638396 C61.2928487,27.2328873 61.0060975,27.3773023 60.7120806,27.4661731 C58.390946,28.1669965 56.5290008,29.5507725 54.9189316,31.3108005 C53.0405176,33.3635224 51.6799026,35.7412988 50.5295072,38.2538305 C49.7012225,40.0626407 49.0434385,41.9313421 48.4660611,43.8309552 C48.438936,43.9193429 48.4258579,44.0125607 48.3909827,44.1743635 C48.5924835,44.208656 48.7663749,44.2622683 48.9407506,44.2632342 C50.2364591,44.2680642 51.5321676,44.2530914 52.8273917,44.2670982 C53.1935807,44.2709621 53.4512693,44.134275 53.7176767,43.8966423 C55.5224654,42.2853763 57.6459742,41.3681719 60.0455779,41.0885187 C60.4485795,41.0416683 60.8607844,41.064852 61.2686298,41.064369 C67.5539059,41.0609881 73.8396663,41.065818 80.1249423,41.0498792 C81.3470255,41.0464983 82.5686243,40.9233349 83.7897387,40.9383077 C84.2697564,40.9436207 84.7928835,41.0914166 85.2167134,41.3213215 C86.1317016,41.8168727 86.2639365,42.968812 85.5136365,43.6850912 C85.2288228,43.9565334 84.8674776,44.2033431 84.4964448,44.3202275 C81.4317915,45.2857313 79.1644227,47.2887049 77.3073213,49.8041344 C74.9052957,53.0575779 73.3373673,56.7138379 72.2174877,60.5753701 C72.1719562,60.7304109 72.1627531,60.8960777 72.1230342,61.1419213 C72.4204416,61.1554451 72.6732864,61.1771798 72.9271,61.1766968 C75.3504382,61.1766968 77.7732919,61.1728329 80.1966301,61.1704179 C80.3884434,61.1704179 80.5812255,61.162207 80.77207,61.1771798 C81.2026812,61.2114724 81.2482126,61.2844044 81.1455247,61.7273093 C80.6950541,63.6626638 79.4313144,64.7542289 77.3334776,65.111161 C75.8067213,65.3705285 74.2789962,65.2444672 72.7503024,65.2386713 C72.3666758,65.2372223 71.9791742,65.25461 71.6003914,65.2092087 C71.1838271,65.1589774 71.0041233,65.328991 70.8815759,65.7095898 C70.3569956,67.3343796 69.5848986,68.8466319 68.6781449,70.2883672 C66.9532784,73.0303207 64.8346133,75.420172 62.195243,77.320751 C60.568705,78.4924929 58.8012133,79.3976225 56.8167207,79.7956091 C53.4241442,80.4766298 50.5847262,79.436745 48.2379196,76.9609209 C48.0291531,76.7406759 47.8804493,76.4513629 47.7496676,76.1731587 C47.5384792,75.7244578 47.5762606,75.268512 47.921137,74.903369 C48.2354977,74.5701036 48.6569057,74.4633621 49.1078607,74.5836274 C49.3607055,74.6512465 49.6338941,74.7130696 49.843145,74.8574847 C50.8845555,75.5771448 52.0354353,75.48924 53.1683931,75.2747909 C55.1020261,74.908199 56.6500951,73.8267768 57.9763193,72.4328578 C59.832452,70.4805985 60.9620192,68.1264888 61.6522564,65.547787 C61.6764753,65.4579503 61.6803503,65.3623176 61.6890691,65.2695828 C61.6910066,65.2483311 61.6726002,65.2251474 61.622225,65.1034331" id="logo/foofighters"></path>
        </g>
    </g>
</svg>